<svg xmlns="http://www.w3.org/2000/svg" id="Layer_1" version="1.1" viewBox="235.9 383.2 326.5 35">
    <defs>
        <style>      .st0 {        fill: #6f9c3d;      }      .st1 {        fill: #ff8829;      }    </style>
    </defs>
    <path class="st0" d="M261,400.8c2.8-1.4,4.4-4,4.4-7.1,0-5-4.2-8.5-12.8-8.5h-16.7v32.6h17.6c8.8,0,13.4-3.3,13.4-8.9s-2.3-6.8-6-8.1h0ZM251.4,391.8c3.1,0,4.7,1.1,4.7,3.1s-1.6,3.2-4.7,3.2h-6.3v-6.3h6.3ZM252.8,411.1h-7.7v-6.6h7.7c3.2,0,4.8,1.1,4.8,3.3s-1.7,3.3-4.8,3.3h0ZM284,418.2c8.3,0,14.3-5.5,14.3-13.1s-5.9-13-14.3-13-14.3,5.4-14.3,13,6,13.1,14.3,13.1h0ZM284,411.2c-3,0-5.3-2.2-5.3-6.1s2.3-6,5.3-6,5.3,2.1,5.3,6-2.3,6.1-5.3,6.1h0ZM317.6,410.6c-.7.5-1.7.8-2.7.8-1.6,0-2.7-1-2.7-2.9v-8.4h5.8v-6.6h-5.8v-6.6h-8.9v6.6h-3.7v6.6h3.7v8.5c0,6.5,3.8,9.6,10.3,9.6s4.6-.5,6.2-1.4l-2.2-6.2h0ZM338,410.6c-.7.5-1.7.8-2.7.8-1.6,0-2.7-1-2.7-2.9v-8.4h5.8v-6.6h-5.8v-6.6h-8.9v6.6h-3.7v6.6h3.7v8.5c0,6.5,3.8,9.6,10.3,9.6s4.6-.5,6.2-1.4l-2.2-6.2h0ZM343.5,417.8h8.9v-34.6h-8.9v34.6h0ZM384,405.2c0-8.3-6.1-13.1-13.5-13.1s-13.9,5.4-13.9,13,5.8,13.1,14.8,13.1,8.3-1.4,10.8-4.1l-4.7-4.8c-1.7,1.5-3.4,2.2-5.8,2.2s-5.5-1.5-6.2-4.1h18.4c0-.7.1-1.5.1-2.2h0ZM370.5,398.4c2.8,0,4.7,1.7,5.2,4.3h-10.3c.5-2.7,2.4-4.3,5.2-4.3h0Z"/>
    <path class="st1" d="M430.2,417.8l-7.7-11c4.6-1.6,7.2-5.3,7.2-10.3s-5.1-11.4-13.6-11.4h-12.7v32.6h4.7v-9.9h8.1c.7,0,1.4,0,2.1,0l7,10h5.1ZM415.9,403.9h-7.9v-14.7h7.9c6,0,9.1,2.7,9.1,7.3s-3.1,7.4-9.1,7.4h0ZM447.1,418.1c7.4,0,12.8-5.3,12.8-12.6s-5.4-12.6-12.8-12.6-12.9,5.2-12.9,12.6,5.5,12.6,12.9,12.6h0ZM447.1,414.2c-4.8,0-8.3-3.4-8.3-8.7s3.6-8.7,8.3-8.7,8.3,3.4,8.3,8.7-3.5,8.7-8.3,8.7h0ZM476.9,418.1c4.4,0,8.1-1.9,10.1-5.3l-3.4-2.1c-1.6,2.4-4,3.5-6.7,3.5-4.8,0-8.5-3.4-8.5-8.7s3.6-8.7,8.5-8.7,5.1,1.1,6.7,3.5l3.4-2.2c-2-3.4-5.6-5.3-10.1-5.3-7.6,0-13.1,5.2-13.1,12.6s5.5,12.6,13.1,12.6h0ZM511.3,417.8h5.5l-11.4-14.5,10.4-10.2h-5.4l-13.5,12.3v-22.2h-4.5v34.6h4.5v-6.8l5.1-4.8,9.3,11.5h0ZM542.4,405.6c0-7.6-5.1-12.7-12.2-12.7s-12.4,5.3-12.4,12.6,5.3,12.6,13.3,12.6,7.5-1.4,9.7-4l-2.5-2.9c-1.8,2-4.2,3-7.1,3-4.9,0-8.4-2.9-8.9-7.2h20c0-.4,0-1,0-1.4h0ZM530.2,396.6c4.3,0,7.5,2.9,7.9,7.1h-15.8c.5-4.2,3.6-7.1,7.9-7.1h0ZM561.1,413.1c-.9.7-2.2,1.2-3.5,1.2-2.5,0-3.9-1.5-3.9-4.1v-13.4h7.1v-3.7h-7.1v-5.4h-4.5v5.4h-4.2v3.7h4.2v13.6c0,5,2.8,7.7,7.8,7.7s4.1-.6,5.4-1.7l-1.4-3.2h0Z"/>
</svg>