<svg xmlns="http://www.w3.org/2000/svg" id="Layer_1" version="1.1" viewBox="277.95 279.16 242.19 242.39">
    <defs>
        <style>      .st0 {        fill: #6f9c3d;      }      .st0, .st1 {        fill-rule: evenodd;      }      .st1 {        fill: #ff8829;      }    </style>
    </defs>
    <path class="st1" d="M405.3,394.2l-63.2,63.2s-21.5,2.6-47-14.3c-25.5-16.9-20-44.4-.2-51.4,19.7-7,22.9,13.2,22.9,13.2,0,0-8.4-3.9-12.3.1-3.9,4.1,5.3,18,14.9,12.1,9.6-5.9,2.9-14.2,2.9-14.2,0,0,8.1-6.4,15.5-2.9,7.4,3.5,7,7.5,7,7.5,0,0,3.3-9,11.6-8.4,8.3.6,14.4,6.3,14.4,6.3l-21.3,21.3s-13.4,8-26.7,5.3c-13.4-2.7-15-3.7-15-3.7,0,0,21.1,12.2,36.2,6.3,15.1-5.9,21.7-15.2,27.5-21,5.8-5.8,38.2-38.2,38.2-38.2l-5.4,18.8h0Z"/>
    <path class="st1" d="M436.5,412.3l27.9-27.9s1.6,23-4.1,39.4c-5.7,16.5-12.3,19.4-12.3,19.4,0,0,1.1-17.2-11.5-30.9h0Z"/>
    <path class="st1" d="M387.2,363l27.9-27.9s-23-1.6-39.4,4.1c-16.5,5.7-19.4,12.3-19.4,12.3,0,0,17.2-1.1,30.9,11.5h0Z"/>
    <path class="st1" d="M405.3,394.2l-63.2,63.2s-2.6,21.5,14.3,47c16.9,25.5,44.4,20,51.4.2,7-19.7-13.2-22.9-13.2-22.9,0,0,3.9,8.4-.1,12.3-4.1,3.9-18-5.3-12.1-14.9,5.9-9.6,14.1-2.9,14.1-2.9,0,0,6.4-8.1,2.9-15.5-3.5-7.4-7.5-7-7.5-7,0,0,9-3.3,8.4-11.6-.7-8.3-6.3-14.4-6.3-14.4l-21.3,21.3s-8,13.4-5.3,26.7c2.7,13.4,3.7,15,3.7,15,0,0-12.2-21.1-6.3-36.2,5.9-15.1,15.2-21.7,21-27.5l38.2-38.2-18.8,5.4h0Z"/>
    <path class="st0" d="M514.1,285.3s-7.6-8.5-10.4-5.5c-2.8,3-.8,6.1-7.9,8.1-7.1,2-16.1,8.8-19,14.4-2.9,5.6-10.6,5.2-16.4,4.8-5.8-.4-11.2-.7-19.6,7.7-8.4,8.4-50.6,50.6-50.6,50.6-5.2,13.3,30.5,49,43.8,43.8,0,0,42.2-42.2,50.6-50.6,8.4-8.4,8.1-13.9,7.6-19.6-.4-5.8-.8-13.5,4.8-16.4,5.6-2.9,12.4-11.9,14.4-19,2-7.1,5.1-5.1,8.1-7.9,3-2.8-5.5-10.4-5.5-10.4h0ZM465.2,334.3c8.6,8.6,8.6,22.6,0,31.2-8.6,8.6-22.6,8.6-31.2,0-8.6-8.6-8.6-22.6,0-31.2,8.6-8.6,22.6-8.6,31.2,0h0Z"/>
    <path class="st0" d="M459.7,339.7c5.6,5.6,5.6,14.7,0,20.3-5.6,5.6-14.7,5.6-20.3,0-5.6-5.6-5.6-14.7,0-20.3,5.6-5.6,14.7-5.6,20.3,0h0Z"/>
</svg>