<?xml version="1.0" encoding="UTF-8"?>
<svg version="1.1" xmlns="http://www.w3.org/2000/svg" width="493" height="499">	
	<path d="M0 0 C4.34063302 1.08157687 6.93942208 3.52431449 10.125 6.5625 C14.65305577 10.78787824 19.2971484 14.75923524 24.1171875 18.65234375 C27.28015922 21.22815134 30.39321111 23.85701325 33.5 26.5 C37.44634525 29.85465374 41.41642657 33.17222304 45.4375 36.4375 C50.30049424 40.39443418 55.05700203 44.46435942 59.80615234 48.55615234 C64.22031766 52.35163367 68.70333198 56.05277913 73.22265625 59.72265625 C76.89829748 62.73657866 80.51877961 65.81320154 84.13793945 68.89453125 C88.67887483 72.75231706 93.29823966 76.502784 97.953125 80.22265625 C100 82 100 82 101 84 C99.70827639 86.45056657 98.36412829 88.73413506 96.875 91.0625 C96.42487549 91.77277344 95.97475098 92.48304688 95.51098633 93.21484375 C84.48360703 110.3040025 71.05953319 125.96022535 57.88232422 141.41674805 C55.03568965 144.75829111 52.25400907 148.14440364 49.5 151.5625 C45.37309794 156.63607493 40.99897442 161.43741142 36.5546875 166.23046875 C34.49886278 168.45918393 32.48383043 170.70767919 30.5 173 C22.01460945 182.76562368 13.10667227 192.1036306 3.97631836 201.26391602 C2.19241528 203.05755789 0.41952377 204.86164266 -1.35351562 206.66601562 C-16.41809426 221.86905856 -38.43829401 242.37726882 -60.8046875 244.22924805 C-64.91260013 243.80027452 -67.28583975 241.24076282 -70.125 238.4375 C-70.69347656 237.91091797 -71.26195312 237.38433594 -71.84765625 236.84179688 C-72.99164862 235.78211233 -74.12752373 234.71359363 -75.25488281 233.63623047 C-78.08039854 230.98701301 -81.03820563 228.49470336 -84 226 C-82.58113789 223.06198673 -81.12476607 220.80529563 -78.9375 218.375 C-78.00164062 217.32892578 -78.00164062 217.32892578 -77.046875 216.26171875 C-76.03367187 215.14216797 -76.03367187 215.14216797 -75 214 C-74.30390625 213.22269531 -73.6078125 212.44539062 -72.890625 211.64453125 C-69.7850276 208.18101925 -66.66972819 204.72773615 -63.51953125 201.3046875 C-42.11640113 179.31259425 -42.11640113 179.31259425 -33.76171875 151.12890625 C-33.94572059 148.81493585 -33.94572059 148.81493585 -35 146 C-38.72401649 143.97839105 -41.81496504 143.43662991 -46 144 C-62.32778274 150.11478716 -73.47949272 167.53229321 -83.40478516 180.86791992 C-87.27167799 186.05970707 -91.23711401 191.16466126 -95.25268555 196.24194336 C-98.57369427 200.44397342 -101.81418407 204.69484334 -105 209 C-109.51713134 206.1136759 -113.5751666 202.94325532 -117.625 199.4375 C-121.7896103 195.74507243 -121.7896103 195.74507243 -126.3984375 192.66015625 C-128 191 -128 191 -128.359375 187.40234375 C-126.72585536 156.99534473 -107.87379026 131.05036468 -91 107 C-90.34225586 106.05882324 -89.68451172 105.11764648 -89.00683594 104.14794922 C-82.41580103 94.75957731 -75.50186715 85.65057478 -68.34277344 76.68994141 C-66.96981622 74.96201235 -65.61186336 73.22324464 -64.2578125 71.48046875 C-58.86618591 64.54715007 -53.33012025 57.77117145 -47.625 51.09375 C-45.16084036 48.2044868 -42.76339 45.26481542 -40.375 42.3125 C-36.75165505 37.86096192 -32.98036128 33.57617545 -29.1171875 29.33203125 C-27.21948831 27.24176111 -25.35266585 25.13013885 -23.5 23 C-22.33352407 21.6664998 -21.16684508 20.3331772 -20 19 C-19.28972656 18.18402344 -18.57945312 17.36804688 -17.84765625 16.52734375 C-12.40509379 10.3591063 -6.87012063 4.58008042 0 0 Z " fill="#aee5a3" transform="translate(286,105)"/>
	<path id="head" d="M0 0 C2.53529045 3.80293567 2.2876231 6.86378633 2.265625 11.26953125 C2.26849014 12.09365509 2.27135529 12.91777893 2.27430725 13.76687622 C2.2786954 16.44893008 2.26610733 19.13049521 2.25 21.8125 C2.24656586 22.72492462 2.24313171 23.63734924 2.23959351 24.5774231 C2.09299219 57.60200647 -2.43734505 89.26158895 -15 120 C-18.92694923 120 -19.83813251 118.76505737 -22.8125 116.25 C-24.27623047 115.02023438 -24.27623047 115.02023438 -25.76953125 113.765625 C-26.84734879 112.84491307 -27.92413398 111.92299156 -29 111 C-29.56251465 110.51853516 -30.1250293 110.03707031 -30.70458984 109.54101562 C-33.07338407 107.51232535 -35.44057409 105.481812 -37.80371094 103.4465332 C-42.21807888 99.64942858 -46.70239955 95.94797804 -51.22265625 92.27734375 C-54.90759143 89.25580056 -58.53568321 86.16964049 -62.16650391 83.08349609 C-65.55973475 80.20442157 -68.9827672 77.36788508 -72.4375 74.5625 C-77.29764121 70.60788728 -82.05226486 66.54133047 -86.79736328 62.45043945 C-90.42629065 59.32860457 -94.09450374 56.26599697 -97.8125 53.25 C-102.67138347 49.30666282 -107.36344278 45.20152222 -112 41 C-108.27702223 36.67191014 -103.58677558 34.16091544 -98.6875 31.375 C-97.76831787 30.85156006 -96.84913574 30.32812012 -95.90209961 29.78881836 C-70.25827829 15.49706573 -41.92230203 5.83197113 -13 1 C-12.11699219 0.81566406 -11.23398437 0.63132813 -10.32421875 0.44140625 C-6.75050092 -0.23729982 -3.64127782 -0.23877232 0 0 Z " fill="#77bf69" transform="translate(408,57)"/>
	<path id="thrust" d="M0 0 C2.875 2.5 2.875 2.5 5 5 C1.93804513 8.26608519 -1.28225281 11.05466437 -4.8125 13.8125 C-12.95274018 19.97514575 -12.95274018 19.97514575 -19 28 C-18.19175781 27.7834375 -17.38351563 27.566875 -16.55078125 27.34375 C-15.48214844 27.0653125 -14.41351563 26.786875 -13.3125 26.5 C-12.25675781 26.2215625 -11.20101562 25.943125 -10.11328125 25.65625 C-7.28857328 25.0608285 -4.87163292 24.87213508 -2 25 C-3.50169841 29.92865121 -5.55793318 34.38920014 -7.8125 39 C-14.1363375 51.04155625 -14.1363375 51.04155625 -17 64 C-1.0585032 54.9389672 -1.0585032 54.9389672 13.9765625 44.48828125 C16 43 16 43 20 41 C20 46.94 20 52.88 20 59 C27.22601467 50.41910759 32.03897842 40.99759171 37 31 C39.31 32.65 41.62 34.3 44 36 C42.67376713 58.54595884 30.04195916 75.12218882 14 90 C6.86705202 96 6.86705202 96 4 96 C4.66 87.42 5.32 78.84 6 70 C4.02 71.629375 2.04 73.25875 0 74.9375 C-15.01703264 86.87678088 -32.88070771 94.56772954 -50 103 C-53.75225367 90.32994144 -41.78187823 68.29026309 -36.4375 56.875 C-36.07374268 56.09350586 -35.70998535 55.31201172 -35.33520508 54.50683594 C-32.98004827 49.60963025 -30.27394072 45.33840299 -27 41 C-35.20877337 42.52494999 -43.14132068 44.10469709 -51 47 C-48.8899137 32.4931567 -35.11050728 18.63625247 -24 10 C-7.92608175 -1.15588692 -7.92608175 -1.15588692 0 0 Z " fill="#a8ef6d" transform="translate(143,336)"/>
	<path id="fin_1" d="M0 0 C0.33 0 0.66 0 1 0 C1.12970042 11.18305856 1.00784277 22.36472223 0.73654175 33.54492188 C0.70406943 34.96360064 0.67643403 36.38239908 0.65383911 37.80126953 C0.46768469 49.0265952 -0.32712792 57.04712855 -8.5 65.25 C-9.58643579 66.38103199 -10.6723627 67.51255298 -11.7578125 68.64453125 C-12.3034082 69.2060791 -12.84900391 69.76762695 -13.41113281 70.34619141 C-15.79200424 72.82437565 -18.07622231 75.3829236 -20.375 77.9375 C-25.08682982 83.09319784 -29.97442616 88.04478343 -34.96630859 92.92944336 C-38.53573006 96.44421489 -41.86195042 100.09734203 -45.13867188 103.88525391 C-48.51780831 107.72445639 -52.05518908 111.40123633 -55.625 115.0625 C-56.36234375 115.84560547 -57.0996875 116.62871094 -57.859375 117.43554688 C-58.57867187 118.16966797 -59.29796875 118.90378906 -60.0390625 119.66015625 C-60.68053223 120.32668213 -61.32200195 120.99320801 -61.98291016 121.67993164 C-64 123 -64 123 -66.63037109 122.78295898 C-69.31189688 121.89694485 -70.50342335 121.41115126 -72 119 C-71.54734613 114.91675985 -70.51884341 111.33506864 -69.0390625 107.515625 C-68.64976562 106.49726563 -68.26046875 105.47890625 -67.859375 104.4296875 C-67.45203125 103.38039063 -67.0446875 102.33109375 -66.625 101.25 C-60.58621104 86.407648 -60.58621104 86.407648 -58.5 70.6875 C-58.50136963 69.96473877 -58.50273926 69.24197754 -58.50415039 68.49731445 C-58.70523278 61.33957011 -61.07377786 55.4760654 -64 49 C-64.35251005 47.67160791 -64.68955548 46.33884767 -65 45 C-64.47792969 44.77973145 -63.95585937 44.55946289 -63.41796875 44.33251953 C-39.66713752 34.21969844 -20.44046115 20.70067111 -2.3125 2.3125 C-1.1678125 1.1678125 -1.1678125 1.1678125 0 0 Z " fill="#77bf69" transform="translate(296,313)"/>
	<path id="fin_2" d="M0 0 C-1.31158186 2.74729896 -2.76565297 5.23303761 -4.50390625 7.73046875 C-18.86918885 28.63101996 -29.2875531 49.6846478 -33 75 C-36.89370234 75.07487889 -40.24702551 74.96711266 -44 74 C-54.48735399 73.17329417 -62.56533549 73.91979603 -72 79 C-73.14339844 79.60457031 -74.28679687 80.20914063 -75.46484375 80.83203125 C-82.20650017 84.49770949 -88.47942744 88.59068987 -94.59765625 93.23828125 C-97.00989839 95.00725882 -99.33855177 96.62974943 -102 98 C-104.8125 97.1875 -104.8125 97.1875 -107 96 C-108.01617497 92.50138845 -108.58631743 90.29651757 -107.05712891 86.91503906 C-105.56070862 84.57810558 -103.96962574 82.35093845 -102.3125 80.125 C-101.42099243 78.87771118 -101.42099243 78.87771118 -100.51147461 77.60522461 C-99.28193922 75.88746495 -98.04432264 74.17546186 -96.79882812 72.46923828 C-94.66544817 69.54076314 -92.58150171 66.57991578 -90.50170898 63.61328125 C-89.04547564 61.53824138 -87.58033641 59.46974377 -86.11328125 57.40234375 C-83.25142375 53.36332053 -80.41490401 49.30692357 -77.58129883 45.24804688 C-65.8762354 28.48238876 -65.8762354 28.48238876 -61 22 C-60.09121094 20.74509766 -60.09121094 20.74509766 -59.1640625 19.46484375 C-53.96810697 13.54670668 -47.99174774 11.86434946 -40.625 10 C-39.65199951 9.74436279 -38.67899902 9.48872559 -37.67651367 9.2253418 C-34.78756142 8.47026663 -31.89493538 7.73176542 -29 7 C-28.20513184 6.79842285 -27.41026367 6.5968457 -26.59130859 6.38916016 C-23.23418156 5.54076991 -19.8744493 4.7049007 -16.51171875 3.87890625 C-12.33211461 2.83284292 -8.18348533 1.692591 -4.0390625 0.515625 C-2 0 -2 0 0 0 Z " fill="#77bf69" transform="translate(182,215)"/>
	<path id="window" d="M0 0 C7.43119907 5.94495926 11.83781054 12.66770181 14.5625 21.75 C15.73359887 33.46098865 13.49340975 43.60847743 6.0625 52.9375 C-0.23729803 59.85152834 -8.45403851 63.48435718 -17.6953125 64.53515625 C-28.71482116 64.93241126 -37.73848861 60.96616919 -45.90625 53.7265625 C-53.25899455 46.03619192 -55.92407394 36.44143148 -55.70654297 26.04882812 C-55.13941232 15.47934392 -50.88876271 8.34806727 -43.1875 1.25 C-30.0111578 -9.04009582 -13.97241674 -7.67113076 0 0 Z " fill="#e0fdd8" transform="translate(319.1875,161.75)"/>
	<path d="M0 0 C7.43119907 5.94495926 11.83781054 12.66770181 14.5625 21.75 C15.73359887 33.46098865 13.49340975 43.60847743 6.0625 52.9375 C-0.23729803 59.85152834 -8.45403851 63.48435718 -17.6953125 64.53515625 C-28.71482116 64.93241126 -37.73848861 60.96616919 -45.90625 53.7265625 C-53.25899455 46.03619192 -55.92407394 36.44143148 -55.70654297 26.04882812 C-55.13941232 15.47934392 -50.88876271 8.34806727 -43.1875 1.25 C-30.0111578 -9.04009582 -13.97241674 -7.67113076 0 0 Z M-40.625 12.75 C-45.53916354 20.61266167 -46.34196904 27.0428709 -45.1875 36.25 C-42.6209756 43.44190902 -37.76640476 48.49786935 -31.1875 52.25 C-25.1064741 55.08454272 -18.92240867 55.41546497 -12.49609375 53.41015625 C-4.85792809 49.94674373 0.76149259 44.74034604 3.75 36.8125 C5.91406436 28.86398688 5.42495018 22.90332768 1.44140625 15.6171875 C-1.90313037 10.75678177 -6.60833028 6.36050904 -12.1875 4.25 C-23.74104394 2.92376538 -32.18767176 4.09633001 -40.625 12.75 Z " fill="#070906" transform="translate(319.1875,161.75)"/>
	<path id="side_1" d="M0 0 C2.93446886 1.41791563 5.43332409 2.98332607 8 5 C6.38965677 9.09905548 3.4216171 11.76174035 0.3125 14.75 C-3.66461705 18.64778626 -7.49126312 22.57600932 -11.1015625 26.8203125 C-13.11969545 29.13742811 -15.20303785 31.38166381 -17.30053711 33.62670898 C-22.27708945 38.95514656 -27.03153529 44.3773333 -31.59765625 50.06640625 C-34.44961575 53.54904297 -37.40842125 56.92761293 -40.375 60.3125 C-45.98526322 66.74079148 -51.31468431 73.33881663 -56.52392578 80.09423828 C-58.11871479 82.15327285 -59.72812291 84.2002889 -61.33984375 86.24609375 C-69.50811069 96.63565591 -77.38144068 107.20110035 -85 118 C-85.54543457 118.76957031 -86.09086914 119.53914063 -86.65283203 120.33203125 C-92.8182984 129.06176702 -98.71227113 137.90624701 -104.125 147.125 C-104.57439941 147.88224365 -105.02379883 148.6394873 -105.48681641 149.41967773 C-108.00622667 153.80662626 -109.88090983 158.09917352 -111.35644531 162.94042969 C-112.01552518 165.04968528 -112.79579531 167.07735616 -113.625 169.125 C-115.01515198 172.74958474 -115.59838696 176.14451482 -116 180 C-117.32 179.01 -118.64 178.02 -120 177 C-117.28863573 140.46436647 -88.4379617 105.97985517 -67 78 C-66.42588379 77.2486377 -65.85176758 76.49727539 -65.26025391 75.72314453 C-50.95358509 57.04838835 -36.14297361 38.77651571 -20.2265625 21.4453125 C-18.2980008 19.32727807 -16.42280484 17.17770283 -14.5625 15 C-9.99381257 9.72843758 -4.96984797 4.88896437 0 0 Z " fill="#093f0c" transform="translate(286,116)"/>
	<path d="M0 0 C0.495 0.495 0.495 0.495 1 1 C0.62539231 21.22881505 -22.41376891 40.23219057 -35.35546875 54.140625 C-38.06032641 57.06522738 -40.69354098 60.03951344 -43.30078125 63.05078125 C-47.5746796 67.95348303 -51.96919471 72.75112166 -56.328125 77.578125 C-63.6502447 85.6972101 -70.82097613 93.93290734 -77.91333008 102.25292969 C-79.88872576 104.56537028 -81.848509 106.848509 -84 109 C-87.29714793 108.67028521 -88.6226839 108.3773161 -91 106 C-90.84395271 101.24466426 -88.23894948 98.54090221 -85.1875 95.1875 C-80.87650152 90.27852202 -76.82668854 85.24964836 -72.9375 80 C-72.43508789 79.32300049 -71.93267578 78.64600098 -71.41503906 77.94848633 C-70.41817537 76.60433339 -69.42174789 75.25985682 -68.42578125 73.91503906 C-62.556428 66.03161322 -56.47447806 58.30657016 -50.39086914 50.58813477 C-47.13984764 46.4609434 -43.91407635 42.31482131 -40.69604492 38.16186523 C-34.90063216 30.68509126 -29.05424967 23.26991412 -23 16 C-22.22785156 15.02289063 -21.45570313 14.04578125 -20.66015625 13.0390625 C-17.93845176 9.78070584 -14.85808825 7.20394945 -11.5 4.625 C-10.94441406 4.17511719 -10.38882813 3.72523438 -9.81640625 3.26171875 C-6.48398831 0.68203521 -4.25200606 -0.69326186 0 0 Z " fill="#aee5a3" transform="translate(245,256)"/>
	<path d="M0 0 C4.22667388 1.39880978 6.83487298 3.39943995 10.0625 6.4375 C12.9464342 9.13480055 15.79095991 11.69512363 19 14 C18.41632611 20.30367803 16.95928381 25.98660063 15 32 C9.81470359 32 7.88335529 29.68264643 4.25 26.375 C3.00422314 25.27160691 1.75683645 24.17002859 0.5078125 23.0703125 C-0.09256836 22.53954102 -0.69294922 22.00876953 -1.31152344 21.46191406 C-4.40620334 18.78248329 -7.68024254 16.39022537 -11 14 C-9.42219077 10.28954753 -7.09296752 7.70093616 -4.375 4.75 C-3.55773437 3.85796875 -2.74046875 2.9659375 -1.8984375 2.046875 C-1.27195313 1.37140625 -0.64546875 0.6959375 0 0 Z " fill="#aee5a3" transform="translate(194,338)"/>
	<path d="M0 0 C3.10304722 1.82987808 5.51467969 3.99916874 8.12890625 6.4765625 C10.86866122 9.05868773 13.36976386 11.38713424 16.50390625 13.4765625 C14.88206124 17.06169356 12.71134386 20.06648573 10.37890625 23.2265625 C9.65445313 24.21140625 8.93 25.19625 8.18359375 26.2109375 C7.62929687 26.95859375 7.075 27.70625 6.50390625 28.4765625 C3.75412189 27.19953007 1.54341378 25.82407022 -0.73828125 23.83203125 C-1.32996094 23.31962891 -1.92164063 22.80722656 -2.53125 22.27929688 C-3.44197266 21.47975586 -3.44197266 21.47975586 -4.37109375 20.6640625 C-5.57648742 19.61549962 -6.78221361 18.56731886 -7.98828125 17.51953125 C-8.86178223 16.75842041 -8.86178223 16.75842041 -9.75292969 15.98193359 C-12.30505487 13.77795546 -14.89783959 11.62588284 -17.49609375 9.4765625 C-14.61505663 6.37182132 -11.73863995 4.19423787 -8.05859375 2.1015625 C-7.13175781 1.55757813 -6.20492187 1.01359375 -5.25 0.453125 C-2.49609375 -0.5234375 -2.49609375 -0.5234375 0 0 Z " fill="#aee5a3" transform="translate(157.49609375,307.5234375)"/>
	<path id="side_2" d="M0 0 C-0.90987671 0.36242798 -0.90987671 0.36242798 -1.83813477 0.73217773 C-4.56000352 1.81836212 -7.28027231 2.90846581 -10 4 C-10.82097168 4.32887207 -11.64194336 4.65774414 -12.48779297 4.99658203 C-32.06974156 12.9125204 -49.53104685 22.76082388 -66 36 C-68.95409701 34.62845496 -71.44008376 33.01136276 -74 31 C-72.86645228 27.59935684 -72.42869453 27.35504359 -69.484375 25.6171875 C-68.73881348 25.17665039 -67.99325195 24.73611328 -67.22509766 24.28222656 C-66.40831543 23.8178418 -65.5915332 23.35345703 -64.75 22.875 C-63.90099121 22.38999023 -63.05198242 21.90498047 -62.17724609 21.40527344 C-12.59035502 -6.29517751 -12.59035502 -6.29517751 0 0 Z " fill="#093f0c" transform="translate(385,69)"/>
	<path id="fin_3" d="M0 0 C0 6.27 0 12.54 0 19 C-0.33 19 -0.66 19 -1 19 C-1.33 15.04 -1.66 11.08 -2 7 C-2.99 7 -3.98 7 -5 7 C-5.66 6.67 -6.32 6.34 -7 6 C-6.02388578 4.99702025 -5.04402202 3.99768827 -4.0625 3 C-3.51722656 2.443125 -2.97195313 1.88625 -2.41015625 1.3125 C-1 0 -1 0 0 0 Z " fill="#77bf69" transform="translate(297,313)"/>
	<path d="M0 0 C2.8125 0.1875 2.8125 0.1875 6 1 C7.875 3.5625 7.875 3.5625 9 6 C5 6 5 6 3.515625 4.6875 C2.34375 3.125 1.171875 1.5625 0 0 Z " fill="#aee5a3" transform="translate(159,295)"/>
	<path id="fin_4" d="M0 0 C-1.29299694 2.88437779 -2.65941363 4.87219421 -5 7 C-6.32 5.35 -7.64 3.7 -9 2 C-2.25 0 -2.25 0 0 0 Z " fill="#77bf69" transform="translate(182,215)"/>
	<path id="side_3" d="M0 0 C-1.5552912 0.70365602 -3.11964827 1.38729378 -4.6875 2.0625 C-5.55761719 2.44535156 -6.42773438 2.82820313 -7.32421875 3.22265625 C-10.32213864 4.0935848 -12.03280153 3.85006226 -15 3 C-12.04808566 1.03205711 -10.34507977 0.47996408 -6.9375 -0.1875 C-6.05964844 -0.36667969 -5.18179687 -0.54585938 -4.27734375 -0.73046875 C-2 -1 -2 -1 0 0 Z " fill="#093f0c" transform="translate(385,69)"/>
	<path d="M0 0 C0.33 0.99 0.66 1.98 1 3 C-0.11878383 4.17262904 -1.24523051 5.33795138 -2.375 6.5 C-3.00148437 7.1496875 -3.62796875 7.799375 -4.2734375 8.46875 C-6 10 -6 10 -8 10 C-7.67 9.01 -7.34 8.02 -7 7 C-6.34 7 -5.68 7 -5 7 C-4.731875 6.401875 -4.46375 5.80375 -4.1875 5.1875 C-3.01506533 3.02775192 -1.80630718 1.64209744 0 0 Z " fill="#0E0F0B" transform="translate(212,315)"/>
	<path d="M0 0 C0 0.99 0 1.98 0 3 C0.495 3.495 0.99 3.99 1.5 4.5 C1.995 4.995 2.49 5.49 3 6 C3 6.99 3 7.98 3 9 C0.37812506 7.95125002 -0.79371361 7.35068687 -2.25 4.875 C-2.4975 4.25625 -2.745 3.6375 -3 3 C-2.01 2.01 -1.02 1.02 0 0 Z " fill="#aee5a3" transform="translate(205,326)"/>
	<path d="M0 0 C0.99 0.66 1.98 1.32 3 2 C0.19195732 4.96404505 -2.18315774 7.44499019 -6 9 C-4 6 -2 3 0 0 Z " fill="#aee5a3" transform="translate(219,275)"/>
	<path d="M0 0 C0.33 0 0.66 0 1 0 C1 3.3 1 6.6 1 10 C0.01 10.495 0.01 10.495 -1 11 C-2.23076923 4.6 -2.23076923 4.6 -1.0625 1.5625 C-0.711875 1.046875 -0.36125 0.53125 0 0 Z " fill="#8EC958" transform="translate(162,377)"/>
</svg>
